<svg width="24" height="24" viewBox="0 0 24 24" fill="none" xmlns="http://www.w3.org/2000/svg">
<g id="Excel">
<path id="Vector" d="M14.6858 11.5125L6.38403 10.05V20.8567C6.38393 20.9742 6.40702 21.0905 6.45197 21.199C6.49692 21.3076 6.56285 21.4061 6.64597 21.4891C6.72909 21.5721 6.82778 21.6379 6.93637 21.6826C7.04497 21.7274 7.16133 21.7503 7.27878 21.75H21.6038C21.7214 21.7505 21.8379 21.7277 21.9467 21.6831C22.0554 21.6384 22.1543 21.5727 22.2376 21.4896C22.3209 21.4066 22.3869 21.308 22.432 21.1994C22.477 21.0908 22.5001 20.9743 22.5 20.8567V16.875L14.6858 11.5125Z" fill="#185C37"/>
<path id="Vector_2" d="M14.6858 2.25H7.27878C7.16133 2.24971 7.04497 2.2726 6.93637 2.31736C6.82778 2.36213 6.72909 2.42789 6.64597 2.51088C6.56285 2.59386 6.49692 2.69244 6.45197 2.80096C6.40702 2.90947 6.38393 3.0258 6.38403 3.14325V7.125L14.6858 12L19.0815 13.4625L22.5 12V7.125L14.6858 2.25Z" fill="#21A366"/>
<path id="Vector_3" d="M6.38403 7.125H14.6858V12H6.38403V7.125Z" fill="#107C41"/>
<path id="Vector_4" opacity="0.1" d="M12.3255 6.15002H6.38403V18.3375H12.3255C12.5623 18.3363 12.789 18.2419 12.9567 18.0747C13.1243 17.9075 13.2193 17.681 13.221 17.4443V7.04327C13.2193 6.80653 13.1243 6.58002 12.9567 6.41282C12.789 6.24562 12.5623 6.1512 12.3255 6.15002Z" fill="black"/>
<path id="Vector_5" opacity="0.2" d="M11.8373 6.63751H6.38403V18.825H11.8373C12.074 18.8238 12.3008 18.7294 12.4684 18.5622C12.636 18.395 12.731 18.1685 12.7328 17.9318V7.53076C12.731 7.29402 12.636 7.0675 12.4684 6.90031C12.3008 6.73311 12.074 6.63869 11.8373 6.63751Z" fill="black"/>
<path id="Vector_6" opacity="0.2" d="M11.8373 6.63751H6.38403V17.85H11.8373C12.074 17.8488 12.3008 17.7544 12.4684 17.5872C12.636 17.42 12.731 17.1935 12.7328 16.9568V7.53076C12.731 7.29402 12.636 7.0675 12.4684 6.90031C12.3008 6.73311 12.074 6.63869 11.8373 6.63751Z" fill="black"/>
<path id="Vector_7" opacity="0.2" d="M11.349 6.63751H6.38403V17.85H11.349C11.5858 17.8488 11.8125 17.7544 11.9802 17.5872C12.1478 17.42 12.2428 17.1935 12.2445 16.9568V7.53076C12.2428 7.29402 12.1478 7.0675 11.9802 6.90031C11.8125 6.73311 11.5858 6.63869 11.349 6.63751Z" fill="black"/>
<path id="Vector_8" d="M2.3955 6.63752H11.349C11.5862 6.63732 11.8137 6.73129 11.9816 6.89879C12.1496 7.06628 12.2441 7.29359 12.2445 7.53077V16.4693C12.2441 16.7064 12.1496 16.9338 11.9816 17.1012C11.8137 17.2687 11.5862 17.3627 11.349 17.3625H2.3955C2.27798 17.3629 2.16154 17.3401 2.05286 17.2954C1.94418 17.2506 1.84541 17.1849 1.7622 17.1019C1.679 17.0189 1.613 16.9203 1.56801 16.8117C1.52301 16.7032 1.4999 16.5868 1.5 16.4693V7.53077C1.4999 7.41325 1.52301 7.29686 1.56801 7.1883C1.613 7.07973 1.679 6.98112 1.7622 6.89813C1.84541 6.81513 1.94418 6.74938 2.05286 6.70466C2.16154 6.65994 2.27798 6.63712 2.3955 6.63752Z" fill="url(#paint0_linear_1844_638)"/>
<path id="Vector_9" d="M4.2749 14.9048L6.15815 11.9918L4.43315 9.09528H5.8184L6.75965 10.95C6.84665 11.1255 6.90965 11.256 6.93815 11.343H6.9509C7.0124 11.2025 7.0774 11.066 7.1459 10.9335L8.1524 9.09828H9.4274L7.65815 11.9783L9.4724 14.907H8.11565L7.02815 12.8738C6.9778 12.7863 6.9349 12.6947 6.8999 12.6H6.8819C6.85012 12.6923 6.80784 12.7806 6.7559 12.8633L5.63615 14.9048H4.2749Z" fill="white"/>
<path id="Vector_10" d="M21.6045 2.25001H14.6858V7.125H22.5V3.14325C22.5001 3.02573 22.477 2.90935 22.432 2.80079C22.387 2.69222 22.321 2.59361 22.2378 2.51061C22.1546 2.42762 22.0559 2.36187 21.9472 2.31715C21.8385 2.27243 21.7221 2.24961 21.6045 2.25001Z" fill="#33C481"/>
<path id="Vector_11" d="M14.6858 12H22.5V16.875H14.6858V12Z" fill="#107C41"/>
</g>
<defs>
<linearGradient id="paint0_linear_1844_638" x1="3.3705" y1="5.93552" x2="10.374" y2="18.0645" gradientUnits="userSpaceOnUse">
<stop stop-color="#18884F"/>
<stop offset="0.5" stop-color="#117E43"/>
<stop offset="1" stop-color="#0B6631"/>
</linearGradient>
</defs>
</svg>
