<svg width="25" height="24" viewBox="0 0 25 24" fill="none" xmlns="http://www.w3.org/2000/svg">
<g id="Frame 1410126260" opacity="0.5">
<path id="Vector" d="M2.38079 3H10.9522C11.4069 3 11.8429 3.18964 12.1644 3.52721C12.4859 3.86477 12.6665 4.32261 12.6665 4.8C12.6665 5.27739 12.4859 5.73523 12.1644 6.07279C11.8429 6.41036 11.4069 6.6 10.9522 6.6H2.38079C1.92613 6.6 1.4901 6.41036 1.16861 6.07279C0.847116 5.73523 0.666504 5.27739 0.666504 4.8C0.666504 4.32261 0.847116 3.86477 1.16861 3.52721C1.4901 3.18964 1.92613 3 2.38079 3ZM14.3808 17.4H22.9522C23.4069 17.4 23.8429 17.5896 24.1644 17.9272C24.4859 18.2648 24.6665 18.7226 24.6665 19.2C24.6665 19.6774 24.4859 20.1352 24.1644 20.4728C23.8429 20.8104 23.4069 21 22.9522 21H14.3808C13.9261 21 13.4901 20.8104 13.1686 20.4728C12.8471 20.1352 12.6665 19.6774 12.6665 19.2C12.6665 18.7226 12.8471 18.2648 13.1686 17.9272C13.4901 17.5896 13.9261 17.4 14.3808 17.4ZM2.38079 10.2H22.9522C23.4069 10.2 23.8429 10.3896 24.1644 10.7272C24.4859 11.0648 24.6665 11.5226 24.6665 12C24.6665 12.4774 24.4859 12.9352 24.1644 13.2728C23.8429 13.6104 23.4069 13.8 22.9522 13.8H2.38079C1.92613 13.8 1.4901 13.6104 1.16861 13.2728C0.847116 12.9352 0.666504 12.4774 0.666504 12C0.666504 11.5226 0.847116 11.0648 1.16861 10.7272C1.4901 10.3896 1.92613 10.2 2.38079 10.2Z" fill="#0077DA"/>
</g>
</svg>
