<svg width="20" height="20" viewBox="0 0 20 20" fill="none" xmlns="http://www.w3.org/2000/svg">
<g id="Group 96">
<path id="Subtract" fill-rule="evenodd" clip-rule="evenodd" d="M6.51669 2.79613C3.84343 4.09112 2 6.83028 2 10C2 10.1969 2.00711 10.3921 2.0211 10.5855L8.16287 8.93977L6.51669 2.79613ZM9.41484 2.02107L11.1901 8.64628L11.2017 8.68966C11.2517 8.87537 11.3222 9.13732 11.3532 9.37748C11.3922 9.68019 11.4014 10.159 11.1197 10.6469C10.838 11.1348 10.4188 11.3662 10.1371 11.4838C9.91364 11.5771 9.65153 11.647 9.4657 11.6965L9.42229 11.7081L2.79626 13.4836C4.0913 16.1567 6.83039 18 10 18C14.4183 18 18 14.4183 18 10C18 5.58172 14.4183 2 10 2C9.80321 2 9.60807 2.00711 9.41484 2.02107Z" fill="white"/>
<path id="Ellipse 52" d="M7.92945 2.27259C7.67849 1.33602 7.55302 0.867729 7.12083 0.67286C6.68865 0.477992 6.30723 0.667822 5.54439 1.04748C4.97028 1.33321 4.42361 1.67419 3.91239 2.06647C2.87054 2.8659 1.99636 3.86272 1.33975 5C0.683136 6.13728 0.256961 7.39275 0.0855513 8.69474C0.00144309 9.3336 -0.020516 9.97753 0.019089 10.6176C0.0717137 11.4681 0.098026 11.8933 0.482878 12.1701C0.867729 12.447 1.33602 12.3215 2.27259 12.0706L8.06815 10.5176C8.97883 10.2736 9.43417 10.1516 9.64128 9.79289C9.84839 9.43417 9.72638 8.97883 9.48236 8.06815L7.92945 2.27259Z" fill="white"/>
</g>
</svg>
