<svg width="24" height="24" viewBox="0 0 24 24" fill="none" xmlns="http://www.w3.org/2000/svg">
<g id="Group 93">
<path id="Vector 99" d="M10.3595 0.82092L3.27553 4.36585C1.84613 5.08114 1.13143 5.43879 1.13143 6.00497C1.13143 6.57116 1.84613 6.92881 3.27552 7.64409L10.3595 11.189L10.3595 11.189C11.1645 11.5919 11.567 11.7933 12 11.7933C12.433 11.7933 12.8355 11.5919 13.6405 11.189L13.6405 11.189L20.7245 7.6441C22.1539 6.92881 22.8686 6.57116 22.8686 6.00497C22.8686 5.43879 22.1539 5.08114 20.7245 4.36585L13.6405 0.82092C12.8355 0.418096 12.433 0.216684 12 0.216684C11.567 0.216684 11.1645 0.418096 10.3595 0.82092Z" fill="white"/>
<path id="Subtract" fill-rule="evenodd" clip-rule="evenodd" d="M4.01168 8.97765C5.19124 9.66319 6.64256 10.4209 8.36567 11.3205L8.58047 11.4326C10.243 12.3006 11.0742 12.7345 11.9735 12.7345C12.8728 12.7345 13.7041 12.3006 15.3666 11.4326L15.3666 11.4326L15.5814 11.3205C17.3046 10.4208 18.756 9.66311 19.9356 8.97754L21.7068 9.90228C23.0724 10.6152 23.7552 10.9717 23.7552 11.5271C23.7552 12.0824 23.0724 12.4389 21.7068 13.1519L13.6702 17.3476C12.839 17.7815 12.4234 17.9985 11.9737 17.9985C11.5241 17.9985 11.1084 17.7815 10.2772 17.3476L2.24061 13.1519C0.875004 12.4389 0.1922 12.0824 0.1922 11.5271C0.1922 10.9717 0.875004 10.6152 2.24061 9.90228L4.01168 8.97765Z" fill="white"/>
<path id="Subtract_2" fill-rule="evenodd" clip-rule="evenodd" d="M4.01982 15.0081C5.21526 15.7006 6.69092 16.4659 8.4468 17.3767L8.62769 17.4705C10.2821 18.3286 11.1092 18.7576 12.0034 18.7576C12.8975 18.7576 13.7247 18.3286 15.379 17.4705L15.5599 17.3767C17.3157 16.466 18.7913 15.7006 19.9867 15.0081L21.7497 15.9226C23.125 16.6359 23.8127 16.9926 23.8127 17.5496C23.8127 18.1067 23.125 18.4633 21.7497 19.1767L13.691 23.3565L13.691 23.3565C12.8638 23.7856 12.4503 24.0001 12.0032 24.0001C11.5561 24.0001 11.1425 23.7856 10.3154 23.3565L2.25668 19.1767C0.881379 18.4633 0.193726 18.1067 0.193726 17.5496C0.193726 16.9926 0.881378 16.6359 2.25668 15.9226L4.01982 15.0081Z" fill="white"/>
</g>
</svg>
