<svg width="24" height="24" viewBox="0 0 24 24" fill="none" xmlns="http://www.w3.org/2000/svg">
<g id="Group 93">
<path id="Vector 99" d="M10.3595 0.82092L3.27553 4.36585C1.84613 5.08114 1.13143 5.43879 1.13143 6.00497C1.13143 6.57116 1.84613 6.92881 3.27552 7.64409L10.3595 11.189L10.3595 11.189C11.1645 11.5919 11.567 11.7933 12 11.7933C12.433 11.7933 12.8355 11.5919 13.6405 11.189L13.6405 11.189L20.7245 7.6441C22.1539 6.92881 22.8686 6.57116 22.8686 6.00497C22.8686 5.43879 22.1539 5.08114 20.7245 4.36585L13.6405 0.82092C12.8355 0.418096 12.433 0.216684 12 0.216684C11.567 0.216684 11.1645 0.418096 10.3595 0.82092Z" fill="white"/>
<path id="Subtract" fill-rule="evenodd" clip-rule="evenodd" d="M4.01162 8.97777C5.19118 9.66332 6.6425 10.421 8.3656 11.3206L8.58041 11.4327C10.2429 12.3007 11.0741 12.7347 11.9735 12.7347C12.8728 12.7347 13.704 12.3007 15.3665 11.4328L15.3665 11.4327L15.5813 11.3206C17.3045 10.421 18.7559 9.66324 19.9355 8.97766L21.7068 9.9024C23.0724 10.6153 23.7552 10.9718 23.7552 11.5272C23.7552 12.0826 23.0724 12.439 21.7068 13.152L13.6702 17.3477C12.8389 17.7817 12.4233 17.9986 11.9737 17.9986C11.524 17.9986 11.1084 17.7817 10.2771 17.3477L2.24055 13.152C0.874943 12.439 0.192139 12.0826 0.192139 11.5272C0.192139 10.9718 0.874943 10.6153 2.24055 9.9024L4.01162 8.97777Z" fill="white"/>
<path id="Subtract_2" fill-rule="evenodd" clip-rule="evenodd" d="M4.0197 15.0079C5.21513 15.7004 6.69079 16.4658 8.44667 17.3766L8.62757 17.4704C10.2819 18.3285 11.1091 18.7575 12.0032 18.7575C12.8974 18.7575 13.7245 18.3285 15.3789 17.4704L15.5598 17.3766C17.3156 16.4659 18.7912 15.7005 19.9866 15.008L21.7496 15.9224C23.1249 16.6358 23.8125 16.9924 23.8125 17.5495C23.8125 18.1065 23.1249 18.4632 21.7496 19.1765L13.6909 23.3564L13.6909 23.3564C12.8637 23.7854 12.4501 24 12.0031 24C11.556 24 11.1424 23.7854 10.3152 23.3564L2.25656 19.1765C0.881256 18.4632 0.193604 18.1065 0.193604 17.5495C0.193604 16.9924 0.881256 16.6358 2.25656 15.9224L4.0197 15.0079Z" fill="white"/>
</g>
</svg>
