<svg width="20" height="20" viewBox="0 0 20 20" fill="none" xmlns="http://www.w3.org/2000/svg">
<g id="Group">
<g id="Area">
<path id="Vector" d="M8.57896 6.51408L0.131592 5.30737V16.579C0.132619 17.4511 0.479517 18.2872 1.09619 18.9038C1.71286 19.5205 2.54896 19.8674 3.42107 19.8684H5.90791L8.57896 6.51408Z" fill="white"/>
<path id="Subtract" fill-rule="evenodd" clip-rule="evenodd" d="M8.66222 12.8071L7.25 19.8685H14.2303L14.4446 12.8071H8.66222ZM8.94291 11.4035H19.8245V12.8071H15.8487L15.6345 19.8685H16.5789C17.4511 19.8674 18.2871 19.5205 18.9038 18.9039C19.5205 18.2872 19.8674 17.4511 19.8684 16.579V8.12676L9.88349 6.70044L8.94291 11.4035Z" fill="white"/>
<path id="Vector_2" d="M19.8684 6.79784V3.42107C19.8674 2.54896 19.5205 1.71286 18.9038 1.09619C18.2872 0.479517 17.4511 0.132619 16.579 0.131592H3.42107C2.54896 0.132619 1.71286 0.479517 1.09619 1.09619C0.479517 1.71286 0.132619 2.54896 0.131592 3.42107V3.97843L19.8684 6.79784Z" fill="white"/>
</g>
</g>
</svg>
