<svg width="72" height="72" viewBox="0 0 72 72" fill="none" xmlns="http://www.w3.org/2000/svg">
<g id="Icons" filter="url(#filter0_d_1186_5746)">
<path d="M16 36C16 24.9543 24.9543 16 36 16C47.0457 16 56 24.9543 56 36C56 47.0457 47.0457 56 36 56C24.9543 56 16 47.0457 16 36Z" fill="url(#paint0_linear_1186_5746)" shape-rendering="crispEdges"/>
<path d="M36 15.5C24.6782 15.5 15.5 24.6782 15.5 36C15.5 47.3218 24.6782 56.5 36 56.5C47.3218 56.5 56.5 47.3218 56.5 36C56.5 24.6782 47.3218 15.5 36 15.5Z" stroke="white" stroke-opacity="0.5" shape-rendering="crispEdges"/>
<path id="Vector" fill-rule="evenodd" clip-rule="evenodd" d="M34.896 26C33.4774 26.0001 32.0793 26.3395 30.8184 26.9898C29.5576 27.6402 28.4706 28.5826 27.648 29.7385C26.8255 30.8944 26.2913 32.2302 26.09 33.6345C25.8887 35.0389 26.0262 36.471 26.491 37.8114C26.9557 39.1518 27.7343 40.3616 28.7617 41.3399C29.7891 42.3182 31.0356 43.0366 32.3971 43.4352C33.7586 43.8338 35.1958 43.901 36.5886 43.6313C37.9813 43.3615 39.2894 42.7626 40.4037 41.8845L44.2262 45.7069C44.4236 45.8976 44.688 46.0031 44.9624 46.0007C45.2368 45.9983 45.4994 45.8883 45.6934 45.6942C45.8875 45.5001 45.9976 45.2376 46 44.9632C46.0023 44.6887 45.8968 44.4243 45.7062 44.2269L41.8837 40.4044C42.9178 39.0926 43.5617 37.516 43.7417 35.8553C43.9216 34.1945 43.6304 32.5167 42.9013 31.0137C42.1722 29.5107 41.0347 28.2434 39.619 27.3567C38.2033 26.4701 36.5665 25.9999 34.896 26ZM28.0926 34.8968C28.0926 33.0924 28.8094 31.3619 30.0853 30.086C31.3612 28.8102 33.0917 28.0934 34.896 28.0934C36.7004 28.0934 38.4309 28.8102 39.7068 30.086C40.9827 31.3619 41.6995 33.0924 41.6995 34.8968C41.6995 36.7012 40.9827 38.4317 39.7068 39.7076C38.4309 40.9835 36.7004 41.7002 34.896 41.7002C33.0917 41.7002 31.3612 40.9835 30.0853 39.7076C28.8094 38.4317 28.0926 36.7012 28.0926 34.8968Z" fill="white"/>
</g>
<defs>
<filter id="filter0_d_1186_5746" x="0.964911" y="0.964911" width="70.0702" height="70.0702" filterUnits="userSpaceOnUse" color-interpolation-filters="sRGB">
<feFlood flood-opacity="0" result="BackgroundImageFix"/>
<feColorMatrix in="SourceAlpha" type="matrix" values="0 0 0 0 0 0 0 0 0 0 0 0 0 0 0 0 0 0 127 0" result="hardAlpha"/>
<feOffset/>
<feGaussianBlur stdDeviation="7.01754"/>
<feComposite in2="hardAlpha" operator="out"/>
<feColorMatrix type="matrix" values="0 0 0 0 0 0 0 0 0 0 0 0 0 0 0 0 0 0 0.15 0"/>
<feBlend mode="normal" in2="BackgroundImageFix" result="effect1_dropShadow_1186_5746"/>
<feBlend mode="normal" in="SourceGraphic" in2="effect1_dropShadow_1186_5746" result="shape"/>
</filter>
<linearGradient id="paint0_linear_1186_5746" x1="36" y1="16" x2="36" y2="56" gradientUnits="userSpaceOnUse">
<stop stop-color="#6F6F6F"/>
<stop offset="1" stop-color="#262626"/>
</linearGradient>
</defs>
</svg>
