<svg width="24" height="24" viewBox="0 0 24 24" fill="none" xmlns="http://www.w3.org/2000/svg">
<g id="Frame 1410126260">
<path id="Vector" d="M1.71429 3H10.2857C10.7404 3 11.1764 3.18964 11.4979 3.52721C11.8194 3.86477 12 4.32261 12 4.8C12 5.27739 11.8194 5.73523 11.4979 6.07279C11.1764 6.41036 10.7404 6.6 10.2857 6.6H1.71429C1.25963 6.6 0.823594 6.41036 0.502103 6.07279C0.180612 5.73523 0 5.27739 0 4.8C0 4.32261 0.180612 3.86477 0.502103 3.52721C0.823594 3.18964 1.25963 3 1.71429 3ZM13.7143 17.4H22.2857C22.7404 17.4 23.1764 17.5896 23.4979 17.9272C23.8194 18.2648 24 18.7226 24 19.2C24 19.6774 23.8194 20.1352 23.4979 20.4728C23.1764 20.8104 22.7404 21 22.2857 21H13.7143C13.2596 21 12.8236 20.8104 12.5021 20.4728C12.1806 20.1352 12 19.6774 12 19.2C12 18.7226 12.1806 18.2648 12.5021 17.9272C12.8236 17.5896 13.2596 17.4 13.7143 17.4ZM1.71429 10.2H22.2857C22.7404 10.2 23.1764 10.3896 23.4979 10.7272C23.8194 11.0648 24 11.5226 24 12C24 12.4774 23.8194 12.9352 23.4979 13.2728C23.1764 13.6104 22.7404 13.8 22.2857 13.8H1.71429C1.25963 13.8 0.823594 13.6104 0.502103 13.2728C0.180612 12.9352 0 12.4774 0 12C0 11.5226 0.180612 11.0648 0.502103 10.7272C0.823594 10.3896 1.25963 10.2 1.71429 10.2Z" fill="white"/>
</g>
</svg>
