<svg width="24" height="24" viewBox="0 0 24 24" fill="none" xmlns="http://www.w3.org/2000/svg">
<g id="tabler:navigation-filled">
<path id="Vector" d="M11.092 2.581C11.1672 2.41746 11.2852 2.27726 11.4335 2.1752C11.5818 2.07314 11.7549 2.01299 11.9345 2.00111C12.1141 1.98923 12.2936 2.02606 12.454 2.10771C12.6145 2.18935 12.7499 2.31279 12.846 2.46499L12.908 2.581L20.913 19.946C21.111 20.512 20.963 21.142 20.535 21.561C20.3466 21.7472 20.1131 21.8813 19.8574 21.9502C19.6017 22.0191 19.3324 22.0204 19.076 21.954L11.999 19.556L5.10001 21.894C4.84862 21.992 4.57588 22.0223 4.30912 21.9817C4.04235 21.9412 3.79092 21.8313 3.58001 21.663L3.46801 21.563C3.07001 21.177 2.91201 20.609 3.07501 20.007L3.12201 19.857L11.092 2.581Z" fill="white"/>
</g>
</svg>
