<svg width="25" height="24" viewBox="0 0 25 24" fill="none" xmlns="http://www.w3.org/2000/svg">
<g id="Pie" opacity="0.5">
<g id="Group">
<path id="Vector" d="M9.0005 2.56969C9.14161 2.51978 9.29213 2.50218 9.44095 2.5182C9.58977 2.53422 9.7331 2.58344 9.86036 2.66223C9.98762 2.74103 10.0956 2.84739 10.1762 2.97346C10.2569 3.09954 10.3083 3.24212 10.3265 3.39069L10.3335 3.51169V11.9997C10.3333 12.5043 10.5239 12.9903 10.867 13.3602C11.2101 13.7302 11.6803 13.9568 12.1835 13.9947L12.3335 13.9997H20.8215C20.9815 13.9997 21.1391 14.038 21.2811 14.1115C21.4232 14.1851 21.5456 14.2916 21.6379 14.4222C21.7303 14.5527 21.79 14.7036 21.812 14.862C21.8341 15.0205 21.8178 15.1819 21.7645 15.3327C20.3915 19.2157 16.6895 21.9997 12.3335 21.9997C6.8105 21.9997 2.3335 17.5227 2.3335 11.9997C2.3335 7.64369 5.1175 3.94169 9.0005 2.56969ZM13.3225 2.05469L13.4425 2.06069C15.6976 2.31291 17.7999 3.32428 19.4044 4.9288C21.0089 6.53331 22.0203 8.63563 22.2725 10.8907C22.3013 11.1523 22.2258 11.4147 22.0623 11.621C21.8989 11.8273 21.6607 11.9608 21.3995 11.9927L21.2795 11.9997H13.3335C13.0886 11.9997 12.8522 11.9097 12.6691 11.747C12.4861 11.5842 12.3692 11.3599 12.3405 11.1167L12.3335 10.9997V3.05469C12.3335 2.79137 12.4373 2.53866 12.6225 2.35144C12.8077 2.16422 13.0592 2.05758 13.3225 2.05469Z" fill="#0077DA"/>
</g>
</g>
</svg>
