<svg width="24" height="24" viewBox="0 0 24 24" fill="none" xmlns="http://www.w3.org/2000/svg">
<g id="Refresh">
<g id="Group">
<path id="Vector" d="M6.5 6.5C6.5 4.85 7.85 3.5 9.5 3.5H14.5C16.15 3.5 17.5 4.85 17.5 6.5H19.5C19.5 3.75 17.25 1.5 14.5 1.5H9.5C6.75 1.5 4.5 3.75 4.5 6.5V12.1H6.5V6.5Z" fill="#1565C0"/>
<path id="Vector_2" d="M2.30005 11L5.50005 15.2L8.70005 11H2.30005Z" fill="#1565C0"/>
</g>
<g id="Group_2">
<path id="Vector_3" d="M17.5 17.5C17.5 19.15 16.15 20.5 14.5 20.5H9.5C7.85 20.5 6.5 19.15 6.5 17.5H4.5C4.5 20.25 6.75 22.5 9.5 22.5H14.5C17.25 22.5 19.5 20.25 19.5 17.5V11.5H17.5V17.5Z" fill="#1565C0"/>
<path id="Vector_4" d="M15.3 13L18.5 8.79999L21.7 13H15.3Z" fill="#1565C0"/>
</g>
</g>
</svg>
