<svg width="25" height="24" viewBox="0 0 25 24" fill="none" xmlns="http://www.w3.org/2000/svg">
<g id="Iconly/Regular/Bold/Search">
<g id="Search">
<path id="Search_2" fill-rule="evenodd" clip-rule="evenodd" d="M2.5 10.6699C2.5 5.88166 6.34034 2 11.0776 2C13.3526 2 15.5343 2.91344 17.1429 4.53936C18.7516 6.16529 19.6553 8.37052 19.6553 10.6699C19.6553 15.4582 15.8149 19.3399 11.0776 19.3399C6.34034 19.3399 2.5 15.4582 2.5 10.6699ZM19.5134 17.6543L22.068 19.7164H22.1124C22.6292 20.2388 22.6292 21.0858 22.1124 21.6082C21.5955 22.1306 20.7576 22.1306 20.2407 21.6082L18.1207 19.1785C17.9203 18.9766 17.8076 18.7024 17.8076 18.4164C17.8076 18.1304 17.9203 17.8562 18.1207 17.6543C18.5072 17.2704 19.1268 17.2704 19.5134 17.6543Z" fill="white"/>
</g>
</g>
</svg>
