<svg width="24" height="24" viewBox="0 0 24 24" fill="none" xmlns="http://www.w3.org/2000/svg">
<g id="tabler:navigation-filled">
<path id="Vector" d="M11.0919 2.58103C11.1672 2.41749 11.2852 2.27729 11.4334 2.17523C11.5817 2.07317 11.7548 2.01302 11.9344 2.00114C12.1141 1.98926 12.2935 2.02609 12.454 2.10774C12.6144 2.18938 12.7498 2.31282 12.8459 2.46503L12.9079 2.58103L20.9129 19.946C21.1109 20.512 20.9629 21.142 20.5349 21.561C20.3466 21.7472 20.1131 21.8813 19.8573 21.9502C19.6016 22.0191 19.3324 22.0204 19.0759 21.954L11.9989 19.556L5.09995 21.894C4.84856 21.9921 4.57582 22.0223 4.30906 21.9818C4.04229 21.9412 3.79086 21.8313 3.57995 21.663L3.46795 21.563C3.06995 21.177 2.91195 20.609 3.07495 20.007L3.12195 19.857L11.0919 2.58103Z" fill="white"/>
</g>
</svg>
